<?xml version="1.0" encoding="UTF-8" standalone="no"?>
<!-- Created with Inkscape (http://www.inkscape.org/) -->

<svg
   xmlns:dc="http://purl.org/dc/elements/1.1/"
   xmlns:cc="http://creativecommons.org/ns#"
   xmlns:rdf="http://www.w3.org/1999/02/22-rdf-syntax-ns#"
   xmlns:svg="http://www.w3.org/2000/svg"
   xmlns="http://www.w3.org/2000/svg"
   xmlns:sodipodi="http://sodipodi.sourceforge.net/DTD/sodipodi-0.dtd"
   xmlns:inkscape="http://www.inkscape.org/namespaces/inkscape"
   width="334.5"
   height="370.85715"
   id="svg2"
   version="1.1"
   inkscape:version="0.48.4 r9939"
   sodipodi:docname="pkg.svg">
  <defs
     id="defs4" />
  <sodipodi:namedview
     id="base"
     pagecolor="#ffffff"
     bordercolor="#666666"
     borderopacity="1.0"
     inkscape:pageopacity="0.0"
     inkscape:pageshadow="2"
     inkscape:zoom="0.49497475"
     inkscape:cx="-355.29223"
     inkscape:cy="124.08139"
     inkscape:document-units="px"
     inkscape:current-layer="layer1"
     showgrid="false"
     inkscape:window-width="1366"
     inkscape:window-height="705"
     inkscape:window-x="-8"
     inkscape:window-y="-8"
     inkscape:window-maximized="1"
     fit-margin-top="0"
     fit-margin-left="0"
     fit-margin-right="0"
     fit-margin-bottom="0" />
  <metadata
     id="metadata7">
    <rdf:RDF>
      <cc:Work
         rdf:about="">
        <dc:format>image/svg+xml</dc:format>
        <dc:type
           rdf:resource="http://purl.org/dc/dcmitype/StillImage" />
        <dc:title></dc:title>
      </cc:Work>
    </rdf:RDF>
  </metadata>
  <g
     inkscape:label="Layer 1"
     inkscape:groupmode="layer"
     id="layer1"
     transform="translate(-204.79724,-340.75252)">
    <path
       id="rect2991"
       style="fill:#f5d76e;fill-opacity:1;stroke:none"
       d="m 371.19197,340.75252 167.60655,0 c 0.0694,0 0.12529,0.0559 0.12529,0.12529 l 0,138.32085 c 0,0.0694 0.43533,0.12529 0.36594,0.12529 l -168.09778,0 c -0.0694,0 -0.12529,-0.0559 -0.12529,-0.12529 l 0,-138.32085 c 0,-0.0694 0.0559,-0.12529 0.12529,-0.12529 z m -166.34058,2.28571 161.18058,0 c 0.0687,0 0.124,0.0553 0.124,0.124 l 0,136.89486 c 0,0.0687 -0.0553,0.12399 -0.124,0.12399 l -161.18058,0 c -0.0687,0 0.0189,-0.0553 0.0189,-0.12399 l -0.0714,-136.89486 c -3e-5,-0.0687 -0.0161,-0.124 0.0526,-0.124 z m 0.28414,146.06092 334.03771,0 c 0.0687,0 -0.36738,0.0538 -0.36723,0.12071 l 0.49123,222.26909 c 1.5e-4,0.0669 -0.0553,0.12071 -0.124,0.12071 l -334.03771,0 c -0.0687,0 -0.12394,-0.0538 -0.124,-0.12071 l -0.21429,-222.26909 c -6e-5,-0.0669 0.26959,-0.12071 0.33829,-0.12071 z"
       inkscape:connector-curvature="0" />
    <path
       id="path3005"
       style="fill:#e6e6e6;fill-opacity:1;stroke:none"
       d="m 310.84066,596.32757 122.41316,-1.66463 -59.76496,106.84523 z m 34.94263,-92.77389 52.52793,0 1e-5,137.38076 -52.52793,0 z"
       inkscape:connector-curvature="0" />
  </g>
</svg>
